<mxfile host="app.diagrams.net" modified="2022-08-24T02:53:51.385Z" agent="5.0 (Macintosh; Intel Mac OS X 10_15_7) AppleWebKit/537.36 (KHTML, like Gecko) Chrome/104.0.5112.81 Safari/537.36 Edg/104.0.1293.54" etag="LbE3D403h2oGfU8-zBmO" version="20.2.2" type="github">
  <diagram id="sQ8gZAw8HPURaXDMUwbw" name="第 1 页">
    <mxGraphModel dx="946" dy="646" grid="1" gridSize="10" guides="1" tooltips="1" connect="1" arrows="1" fold="1" page="1" pageScale="1" pageWidth="2339" pageHeight="3300" math="0" shadow="0">
      <root>
        <mxCell id="0" />
        <mxCell id="1" parent="0" />
        <mxCell id="ajTFTd8wIDOydT1wx_mr-1" style="edgeStyle=orthogonalEdgeStyle;shape=link;rounded=0;orthogonalLoop=1;jettySize=auto;html=1;exitX=0.5;exitY=1;exitDx=0;exitDy=0;entryX=0.5;entryY=0;entryDx=0;entryDy=0;fontSize=12;" edge="1" parent="1" source="ajTFTd8wIDOydT1wx_mr-2" target="ajTFTd8wIDOydT1wx_mr-23">
          <mxGeometry relative="1" as="geometry" />
        </mxCell>
        <mxCell id="ajTFTd8wIDOydT1wx_mr-2" value="" style="rounded=1;whiteSpace=wrap;html=1;fontSize=12;" vertex="1" parent="1">
          <mxGeometry x="378.5" y="297" width="365" height="201" as="geometry" />
        </mxCell>
        <mxCell id="ajTFTd8wIDOydT1wx_mr-3" style="shape=link;rounded=0;orthogonalLoop=1;jettySize=auto;html=1;exitX=0.5;exitY=1;exitDx=0;exitDy=0;entryX=0.25;entryY=0;entryDx=0;entryDy=0;fontSize=12;" edge="1" parent="1" source="ajTFTd8wIDOydT1wx_mr-6" target="ajTFTd8wIDOydT1wx_mr-2">
          <mxGeometry relative="1" as="geometry" />
        </mxCell>
        <mxCell id="ajTFTd8wIDOydT1wx_mr-4" style="edgeStyle=orthogonalEdgeStyle;shape=link;rounded=0;orthogonalLoop=1;jettySize=auto;html=1;exitX=0;exitY=0.5;exitDx=0;exitDy=0;entryX=0;entryY=0.5;entryDx=0;entryDy=0;fontSize=12;" edge="1" parent="1" source="ajTFTd8wIDOydT1wx_mr-6" target="ajTFTd8wIDOydT1wx_mr-19">
          <mxGeometry relative="1" as="geometry" />
        </mxCell>
        <mxCell id="ajTFTd8wIDOydT1wx_mr-5" value="QUERY" style="edgeLabel;html=1;align=center;verticalAlign=middle;resizable=0;points=[];fontSize=12;" connectable="0" vertex="1" parent="ajTFTd8wIDOydT1wx_mr-4">
          <mxGeometry x="-0.1874" y="2" relative="1" as="geometry">
            <mxPoint as="offset" />
          </mxGeometry>
        </mxCell>
        <mxCell id="ajTFTd8wIDOydT1wx_mr-6" value="&lt;font style=&quot;font-size: 18px;&quot;&gt;UNION&lt;/font&gt;" style="rounded=1;whiteSpace=wrap;html=1;" vertex="1" parent="1">
          <mxGeometry x="362.5" y="136" width="90" height="55" as="geometry" />
        </mxCell>
        <mxCell id="ajTFTd8wIDOydT1wx_mr-7" style="edgeStyle=none;shape=link;rounded=0;orthogonalLoop=1;jettySize=auto;html=1;exitX=0.5;exitY=1;exitDx=0;exitDy=0;entryX=0.75;entryY=0;entryDx=0;entryDy=0;fontSize=12;" edge="1" parent="1" source="ajTFTd8wIDOydT1wx_mr-10" target="ajTFTd8wIDOydT1wx_mr-2">
          <mxGeometry relative="1" as="geometry" />
        </mxCell>
        <mxCell id="ajTFTd8wIDOydT1wx_mr-8" style="edgeStyle=orthogonalEdgeStyle;shape=link;rounded=0;orthogonalLoop=1;jettySize=auto;html=1;exitX=1;exitY=0.5;exitDx=0;exitDy=0;entryX=1;entryY=0.5;entryDx=0;entryDy=0;fontSize=12;" edge="1" parent="1" source="ajTFTd8wIDOydT1wx_mr-10" target="ajTFTd8wIDOydT1wx_mr-19">
          <mxGeometry relative="1" as="geometry" />
        </mxCell>
        <mxCell id="ajTFTd8wIDOydT1wx_mr-9" value="QUREY" style="edgeLabel;html=1;align=center;verticalAlign=middle;resizable=0;points=[];fontSize=12;" connectable="0" vertex="1" parent="ajTFTd8wIDOydT1wx_mr-8">
          <mxGeometry x="-0.1898" y="-5" relative="1" as="geometry">
            <mxPoint as="offset" />
          </mxGeometry>
        </mxCell>
        <mxCell id="ajTFTd8wIDOydT1wx_mr-10" value="&lt;font style=&quot;font-size: 18px;&quot;&gt;MANAGER&lt;/font&gt;" style="rounded=1;whiteSpace=wrap;html=1;" vertex="1" parent="1">
          <mxGeometry x="645" y="136" width="120" height="55" as="geometry" />
        </mxCell>
        <mxCell id="ajTFTd8wIDOydT1wx_mr-11" value="&lt;font style=&quot;font-size: 18px;&quot;&gt;FISCO BCOS / BLOCK CHAIN&lt;/font&gt;" style="rounded=1;whiteSpace=wrap;html=1;" vertex="1" parent="1">
          <mxGeometry x="415.5" y="339" width="280" height="55" as="geometry" />
        </mxCell>
        <mxCell id="ajTFTd8wIDOydT1wx_mr-12" value="CHAIN&lt;br&gt;ONE" style="ellipse;shape=cloud;whiteSpace=wrap;html=1;fontSize=18;" vertex="1" parent="1">
          <mxGeometry x="380.5" y="370" width="120" height="80" as="geometry" />
        </mxCell>
        <mxCell id="ajTFTd8wIDOydT1wx_mr-13" value="CHAIN&lt;br&gt;TWO" style="ellipse;shape=cloud;whiteSpace=wrap;html=1;fontSize=18;" vertex="1" parent="1">
          <mxGeometry x="495.5" y="374" width="120" height="80" as="geometry" />
        </mxCell>
        <mxCell id="ajTFTd8wIDOydT1wx_mr-14" value="......" style="ellipse;shape=cloud;whiteSpace=wrap;html=1;fontSize=18;" vertex="1" parent="1">
          <mxGeometry x="617.5" y="370" width="120" height="80" as="geometry" />
        </mxCell>
        <mxCell id="ajTFTd8wIDOydT1wx_mr-15" value="CONTRACT" style="rounded=1;whiteSpace=wrap;html=1;fontSize=18;" vertex="1" parent="1">
          <mxGeometry x="448" y="305" width="215" height="40" as="geometry" />
        </mxCell>
        <mxCell id="ajTFTd8wIDOydT1wx_mr-16" value="&lt;font style=&quot;font-size: 12px;&quot;&gt;&amp;nbsp;RECORD MEMBER / DATA INFO&lt;/font&gt;" style="text;html=1;strokeColor=none;fillColor=none;align=center;verticalAlign=middle;whiteSpace=wrap;rounded=0;fontSize=18;" vertex="1" parent="1">
          <mxGeometry x="230" y="90" width="200" height="60" as="geometry" />
        </mxCell>
        <mxCell id="ajTFTd8wIDOydT1wx_mr-17" value="&lt;font style=&quot;font-size: 12px;&quot;&gt;&amp;nbsp;MANAGER MEMBER / DATA INFO&lt;/font&gt;" style="text;html=1;strokeColor=none;fillColor=none;align=center;verticalAlign=middle;whiteSpace=wrap;rounded=0;fontSize=18;" vertex="1" parent="1">
          <mxGeometry x="677.5" y="90" width="200" height="60" as="geometry" />
        </mxCell>
        <mxCell id="ajTFTd8wIDOydT1wx_mr-18" value="&lt;font style=&quot;font-size: 18px;&quot;&gt;MYSQL&lt;br&gt;&lt;/font&gt;" style="rounded=1;whiteSpace=wrap;html=1;" vertex="1" parent="1">
          <mxGeometry x="387.5" y="434" width="93" height="51" as="geometry" />
        </mxCell>
        <mxCell id="ajTFTd8wIDOydT1wx_mr-19" value="&lt;font style=&quot;font-size: 18px;&quot;&gt;MONGODB&lt;br&gt;&lt;/font&gt;" style="rounded=1;whiteSpace=wrap;html=1;" vertex="1" parent="1">
          <mxGeometry x="509" y="611" width="120" height="55" as="geometry" />
        </mxCell>
        <mxCell id="ajTFTd8wIDOydT1wx_mr-20" value="&lt;font style=&quot;font-size: 18px;&quot;&gt;MYSQL&lt;br&gt;&lt;/font&gt;" style="rounded=1;whiteSpace=wrap;html=1;" vertex="1" parent="1">
          <mxGeometry x="509" y="437" width="93" height="51" as="geometry" />
        </mxCell>
        <mxCell id="ajTFTd8wIDOydT1wx_mr-21" value="&lt;font style=&quot;font-size: 18px;&quot;&gt;MYSQL&lt;br&gt;&lt;/font&gt;" style="rounded=1;whiteSpace=wrap;html=1;" vertex="1" parent="1">
          <mxGeometry x="631" y="434" width="93" height="51" as="geometry" />
        </mxCell>
        <mxCell id="ajTFTd8wIDOydT1wx_mr-22" style="edgeStyle=orthogonalEdgeStyle;shape=link;rounded=0;orthogonalLoop=1;jettySize=auto;html=1;exitX=0.5;exitY=1;exitDx=0;exitDy=0;entryX=0.454;entryY=0.009;entryDx=0;entryDy=0;entryPerimeter=0;fontSize=12;" edge="1" parent="1" source="ajTFTd8wIDOydT1wx_mr-23" target="ajTFTd8wIDOydT1wx_mr-19">
          <mxGeometry relative="1" as="geometry" />
        </mxCell>
        <mxCell id="ajTFTd8wIDOydT1wx_mr-23" value="&lt;font style=&quot;font-size: 18px;&quot;&gt;BLOCKCHAIN&amp;nbsp; DATA SYNC&lt;br&gt;&lt;/font&gt;" style="rounded=1;whiteSpace=wrap;html=1;" vertex="1" parent="1">
          <mxGeometry x="436.5" y="528" width="249" height="55" as="geometry" />
        </mxCell>
      </root>
    </mxGraphModel>
  </diagram>
</mxfile>
